HIERARCHY
ROOT 00
{
	OFFSET -0.002791 -0.224826 0.020408
	CHANNELS 6 Xposition Yposition Zposition Xrotation Yrotation Zrotation
	JOINT 01
	{
		OFFSET 0.058358 -0.086425 -0.005066
		CHANNELS 3 Xrotation Yrotation Zrotation
		JOINT 04
		{
			OFFSET 0.047997 -0.398072 0.009274
			CHANNELS 3 Xrotation Yrotation Zrotation
			JOINT 07
			{
				OFFSET -0.015454 -0.415524 -0.033259
				CHANNELS 3 Xrotation Yrotation Zrotation
				JOINT 10
				{
					OFFSET 0.042898 -0.057861 0.121173
					CHANNELS 3 Xrotation Yrotation Zrotation
					End Site
					{
						OFFSET 0 0 0
					}
				}
			}
		}
	}
	JOINT 02
	{
		OFFSET -0.054309 -0.083736 -0.004465
		CHANNELS 3 Xrotation Yrotation Zrotation
		JOINT 05
		{
			OFFSET -0.049049 -0.402887 0.001841
			CHANNELS 3 Xrotation Yrotation Zrotation
			JOINT 08
			{
				OFFSET 0.018219 -0.417537 -0.031837
				CHANNELS 3 Xrotation Yrotation Zrotation
				JOINT 11
				{
					OFFSET -0.024752 -0.052174 0.124898
					CHANNELS 3 Xrotation Yrotation Zrotation
					End Site
					{
						OFFSET 0 0 0
					}
				}
			}
		}
	}
	JOINT 03
	{
		OFFSET -0.003313 0.105218 -0.024181
		CHANNELS 3 Xrotation Yrotation Zrotation
		JOINT 06
		{
			OFFSET 0.008242 0.139300 0.005812
			CHANNELS 3 Xrotation Yrotation Zrotation
			JOINT 09
			{
				OFFSET 0.001384 0.053964 0.012859
				CHANNELS 3 Xrotation Yrotation Zrotation
				JOINT 12
				{
					OFFSET -0.007522 0.222832 -0.031530
					CHANNELS 3 Xrotation Yrotation Zrotation
					JOINT 15
					{
						OFFSET 0.008750 0.076964 0.054343
						CHANNELS 3 Xrotation Yrotation Zrotation
						End Site
						{
							OFFSET 0 0 0
						}
					}
				}
				JOINT 13
				{
					OFFSET 0.076340 0.121923 -0.029341
					CHANNELS 3 Xrotation Yrotation Zrotation
					JOINT 16
					{
						OFFSET 0.095791 0.030476 -0.005519
						CHANNELS 3 Xrotation Yrotation Zrotation
						JOINT 18
						{
							OFFSET 0.271991 -0.017478 -0.025557
							CHANNELS 3 Xrotation Yrotation Zrotation
							JOINT 20
							{
								OFFSET 0.256962 0.009847 -0.001331
								CHANNELS 3 Xrotation Yrotation Zrotation
								JOINT 22
								{
									OFFSET 0.082075 -0.009379 -0.013521
									CHANNELS 3 Xrotation Yrotation Zrotation
									End Site
									{
										OFFSET 0 0 0
									}
								}
							}
						}
					}
				}
				JOINT 14
				{
					OFFSET -0.083976 0.118456 -0.034303
					CHANNELS 3 Xrotation Yrotation Zrotation
					JOINT 17
					{
						OFFSET -0.098896 0.033516 -0.007303
						CHANNELS 3 Xrotation Yrotation Zrotation
						JOINT 19
						{
							OFFSET -0.261858 -0.015428 -0.017651
							CHANNELS 3 Xrotation Yrotation Zrotation
							JOINT 21
							{
								OFFSET -0.261658 0.005727 -0.009009
								CHANNELS 3 Xrotation Yrotation Zrotation
								JOINT 23
								{
									OFFSET -0.078143 -0.005829 -0.009386
									CHANNELS 3 Xrotation Yrotation Zrotation
									End Site
									{
										OFFSET 0 0 0
									}
								}
							}
						}
					}
				}
			}
		}
	}
}
MOTION
Frames: 10
Frame Time: 1.00000000
-0.002791 -0.224826 0.020408 17.909521 6.705112 1.945624 -64.786499 -3.979878 11.618665 54.387901 -6.811679 4.681482 -7.735071 0.667821 -18.493164 0.000000 0.000000 0.000000 -70.405098 -2.774969 -27.637674 57.195057 -0.530416 -9.379413 -10.775212 17.998405 21.252283 0.000000 0.000000 0.000000 24.932472 -1.442113 -0.406014 9.984201 -0.279444 0.369387 9.985422 -0.248853 0.340490 -13.716337 0.013824 0.930261 0.000000 0.000000 0.000000 1.478045 2.484404 5.876546 -43.151211 34.628151 -22.541445 -174.188614 -64.129463 -175.634933 9.390429 3.741046 21.955681 0.000000 0.000000 0.000000 0.699805 1.664548 -1.398496 -39.767269 -44.700199 19.147713 -172.323334 67.465797 173.649933 -14.078591 -0.380694 -11.147585 0.000000 0.000000 0.000000 
-0.002791 -0.224826 0.020408 17.977053 6.629024 1.950822 -64.703651 -4.253339 11.784759 54.293995 -6.810006 4.325091 -7.714716 0.881089 -18.450312 0.000000 0.000000 0.000000 -70.602280 -2.928663 -27.687677 57.263489 -0.490874 -9.377912 -10.807572 18.189024 21.144905 0.000000 0.000000 0.000000 24.584576 -1.393608 -0.436992 10.014752 -0.274085 0.342081 10.016138 -0.244466 0.313239 -13.718617 -0.000156 1.064354 0.000000 -0.000000 -0.000000 1.206183 2.481980 5.653270 -43.790424 33.604710 -22.058899 -174.041153 -64.680168 -175.500610 9.616511 3.654903 21.905407 0.000000 0.000000 0.000000 0.703015 1.622499 -1.782805 -40.402115 -43.603771 18.562391 -172.155609 67.895470 173.493698 -13.881799 -0.727236 -9.710808 0.000000 -0.000000 -0.000000 
-0.002791 -0.224826 0.020408 17.892220 6.498645 1.980223 -64.404823 -4.732377 12.008924 54.200371 -6.813062 3.730681 -7.720920 1.222664 -18.350094 0.000000 0.000000 0.000000 -70.764320 -3.221370 -27.851204 57.334583 -0.437702 -9.376451 -10.836578 18.621616 20.992922 0.000000 0.000000 0.000000 24.449980 -1.362081 -0.478397 10.050884 -0.271315 0.341568 10.052401 -0.240998 0.312472 -13.685094 0.000057 1.072641 0.000000 0.000000 0.000000 1.067137 2.473242 5.528109 -44.025341 33.095329 -21.825785 -173.955963 -64.988434 -175.422760 9.659800 3.557361 21.766195 0.000000 0.000000 0.000000 0.694760 1.606827 -1.910396 -41.138218 -43.301655 17.897440 -172.126373 67.968742 173.466415 -14.004946 -1.030508 -8.443970 0.000000 -0.000000 -0.000000 
-0.002791 -0.224826 0.020408 17.595644 6.356406 2.105500 -63.863037 -5.220991 12.153163 54.134041 -6.751840 3.097322 -7.784953 1.563636 -18.235102 0.000000 0.000000 0.000000 -70.863739 -3.652332 -28.265863 57.384476 -0.366609 -9.374537 -10.843879 19.357567 20.800797 0.000000 0.000000 0.000000 24.574736 -1.351896 -0.540268 10.083610 -0.270928 0.367396 10.085334 -0.238066 0.337797 -13.599798 0.008491 0.969532 0.000000 0.000000 0.000000 1.051757 2.443190 5.478867 -43.740784 33.063484 -21.893919 -173.949875 -65.010246 -175.417191 9.369662 3.394162 21.513252 0.000000 0.000000 -0.000000 0.677598 1.616078 -1.811012 -41.870716 -43.792183 17.219488 -172.255493 67.641579 173.586746 -14.491026 -1.288245 -7.589670 0.000000 0.000000 0.000000 
-0.002791 -0.224826 0.020408 17.152420 6.294215 2.352773 -63.238438 -5.438688 12.033109 54.125492 -6.571270 2.748567 -7.885833 1.757479 -18.162052 0.000000 0.000000 0.000000 -70.920418 -4.156711 -28.995907 57.355648 -0.287010 -9.373056 -10.794999 20.321606 20.608194 0.000000 0.000000 0.000000 24.876028 -1.349564 -0.643991 10.112391 -0.270431 0.405653 10.114299 -0.233552 0.375562 -13.486542 0.012040 0.849549 0.000000 0.000000 0.000000 1.113064 2.387521 5.459612 -42.987911 33.343830 -22.229342 -174.021118 -64.753609 -175.482300 8.727579 3.141649 21.140091 0.000000 0.000000 0.000000 0.663661 1.637647 -1.640063 -42.155556 -44.738136 16.850670 -172.474640 67.064438 173.790451 -15.232378 -1.584445 -6.969503 -0.000000 0.000000 0.000000 
-0.002791 -0.224826 0.020408 16.809784 6.376009 2.635783 -62.862465 -5.189487 11.584666 54.125458 -6.323413 2.918634 -7.908757 1.771202 -18.137438 0.000000 0.000000 0.000000 -70.999374 -4.626581 -29.871843 57.101604 -0.241302 -9.377465 -10.625448 21.296074 20.492998 0.000000 0.000000 0.000000 25.133051 -1.319648 -0.817594 10.155841 -0.265481 0.434300 10.157871 -0.223777 0.404101 -13.418822 0.003198 0.851430 0.000000 0.000000 0.000000 1.200712 2.329398 5.441979 -42.071674 33.828678 -22.662363 -174.157349 -64.248299 -175.606491 7.937685 2.857165 20.671089 0.000000 0.000000 0.000000 0.675478 1.650684 -1.633518 -41.147453 -45.442192 17.386799 -172.638580 66.613647 173.942276 -16.002981 -1.924811 -6.506444 -0.000000 -0.000000 0.000000 
-0.002791 -0.224826 0.020408 16.879028 6.550633 2.779702 -63.008476 -4.510339 10.982763 53.949562 -6.147150 3.531110 -7.687409 1.684559 -18.079269 0.000000 0.000000 0.000000 -71.127403 -4.993960 -30.516420 56.359550 -0.316419 -9.395785 -10.238832 22.094780 20.548424 0.000000 0.000000 0.000000 25.139526 -1.231498 -1.064235 10.242639 -0.253684 0.441290 10.244695 -0.206875 0.411476 -13.473057 -0.006163 1.048640 0.000000 0.000000 0.000000 1.303747 2.317237 5.449061 -41.436607 34.640560 -22.939837 -174.346634 -63.513844 -175.778229 7.472541 2.713220 20.176399 0.000000 -0.000000 0.000000 0.735215 1.635419 -1.966295 -38.094910 -44.968807 19.354507 -172.587814 66.754974 173.895309 -16.490940 -2.117917 -6.621701 -0.000000 0.000000 0.000000 
-0.002791 -0.224826 0.020408 17.492916 6.724901 2.622073 -63.676445 -3.684531 10.510259 53.388409 -6.162127 4.226912 -7.115919 1.577860 -17.869644 0.000000 0.000000 0.000000 -71.224319 -5.308475 -30.645618 54.898575 -0.641612 -9.434100 -9.576081 22.741093 20.837181 0.000000 0.000000 0.000000 24.876579 -1.099531 -1.321942 10.383196 -0.238787 0.435610 10.385202 -0.187256 0.406238 -13.666152 0.005857 1.384812 0.000000 0.000000 0.000000 1.435298 2.394015 5.524914 -41.452499 35.953495 -22.840006 -174.566162 -62.611309 -175.976105 7.718316 2.851033 19.765234 0.000000 0.000000 0.000000 0.850173 1.579686 -2.652525 -33.234287 -42.336262 22.641041 -172.171295 67.855896 173.508301 -16.596066 -1.781772 -8.209826 -0.000000 0.000000 0.000000 
-0.002791 -0.224826 0.020408 18.448868 6.956209 2.090643 -64.581810 -3.106567 10.280080 52.382671 -6.395121 4.640615 -6.218137 1.461105 -17.453775 0.000000 0.000000 0.000000 -71.117050 -5.752568 -30.371233 52.746391 -1.349385 -9.493614 -8.721208 23.478977 21.352472 0.000000 0.000000 0.000000 24.532713 -0.988222 -1.479348 10.555792 -0.229666 0.438783 10.557783 -0.174828 0.409109 -13.945910 0.042834 1.724111 0.000000 0.000000 0.000000 1.591748 2.562778 5.681495 -42.237690 37.682800 -22.293926 -174.781067 -61.670547 -176.168396 8.640086 3.252361 19.520437 0.000000 -0.000000 0.000000 1.008198 1.483332 -3.549489 -27.943981 -37.016842 26.402374 -171.210724 70.046913 172.606232 -16.532524 -0.562696 -12.108802 -0.000000 -0.000000 0.000000 
-0.002791 -0.224826 0.020408 19.365036 7.491606 1.212619 -65.372162 -3.003443 10.122191 51.041142 -6.742956 4.700394 -5.103508 1.225619 -16.894373 0.000000 0.000000 0.000000 -70.618637 -6.500620 -30.089508 50.202232 -2.410423 -9.569400 -7.918246 24.536705 22.050404 0.000000 0.000000 0.000000 24.333530 -0.961708 -1.466888 10.723887 -0.232809 0.462490 10.725969 -0.176929 0.431343 -14.243232 0.073004 1.964972 -0.000000 0.000000 0.000000 1.737656 2.780354 5.879235 -43.606083 39.412090 -21.437830 -174.962494 -60.828323 -176.329483 9.827893 3.759604 19.429827 0.000000 0.000000 0.000000 1.187236 1.359278 -4.449332 -23.592125 -29.415457 29.815083 -169.384491 73.222725 170.864410 -16.529654 1.610930 -18.256775 -0.000000 -0.000000 0.000000 
